<svg width="40" height="51" viewBox="0 0 40 51" fill="none" xmlns="http://www.w3.org/2000/svg">
<g clip-path="url(#clip0_2_951)">
<path d="M6.74532 32.9298C3.6855 29.1036 2.15108 24.8373 2.14205 20.131C2.14205 15.146 3.90213 10.8977 7.4223 7.38602C10.8881 3.96397 15.0761 2.21253 19.9865 2.13171C24.8875 2.18559 29.0846 3.93703 32.5777 7.38602C36.0979 10.8889 37.8579 15.1372 37.8579 20.131C37.8579 24.8463 36.3145 29.1126 33.2276 32.9298L26.3498 41.1211C26.3498 41.1211 25.2938 41.4444 24.7251 40.8517C24.4814 40.6092 14.8958 28.3762 14.8958 28.3762" stroke="#35B8BE" stroke-width="5" stroke-miterlimit="3" stroke-linecap="square"/>
<path d="M13.7585 27.0019C13.269 26.4967 12.8989 25.8892 12.6754 25.2236C12.4525 24.5559 12.3786 23.848 12.4588 23.1491C12.54 21.667 13.1357 20.4548 14.273 19.4845C15.3832 18.5414 16.6558 18.1642 18.091 18.299C18.9575 18.3528 19.7157 18.5684 20.3926 19.0265C20.8839 19.2991 21.3237 19.6546 21.6923 20.0773L27.433 26.6789" stroke="#35B8BE" stroke-width="5" stroke-miterlimit="3" stroke-linecap="round" stroke-linejoin="round"/>
<path d="M20.0133 47.9921L6.74532 32.9298M25.4833 42.1989L13.7585 27.0019L25.4833 42.1989Z" stroke="#35B8BE" stroke-width="5" stroke-miterlimit="3" stroke-linecap="round"/>
</g>
<defs>
<clipPath id="clip0_2_951">
<rect width="40" height="51" fill="white"/>
</clipPath>
</defs>
</svg>
